<svg width="16" height="16" viewBox="0 0 16 16" fill="none" xmlns="http://www.w3.org/2000/svg">
<path d="M15.1374 7.52861L10.4707 2.86195C10.3449 2.74051 10.1765 2.67331 10.0017 2.67483C9.82695 2.67635 9.65974 2.74646 9.53614 2.87007C9.41253 2.99367 9.34242 3.16088 9.3409 3.33568C9.33938 3.51048 9.40658 3.67888 9.52802 3.80461L13.0567 7.33328H1.33268C1.15587 7.33328 0.986302 7.40352 0.861278 7.52854C0.736253 7.65357 0.666016 7.82313 0.666016 7.99995C0.666016 8.17676 0.736253 8.34633 0.861278 8.47135C0.986302 8.59637 1.15587 8.66661 1.33268 8.66661H13.0567L9.52802 12.1953C9.46434 12.2568 9.41356 12.3303 9.37862 12.4117C9.34368 12.493 9.32528 12.5805 9.32452 12.669C9.32375 12.7575 9.34062 12.8453 9.37414 12.9272C9.40766 13.0092 9.45716 13.0836 9.51975 13.1462C9.58235 13.2088 9.65678 13.2583 9.73871 13.2918C9.82065 13.3253 9.90843 13.3422 9.99695 13.3414C10.0855 13.3407 10.173 13.3223 10.2543 13.2873C10.3356 13.2524 10.4092 13.2016 10.4707 13.1379L15.1374 8.47128C15.2623 8.34626 15.3325 8.17672 15.3325 7.99995C15.3325 7.82317 15.2623 7.65363 15.1374 7.52861Z" fill="#E8533F"/>
</svg>
