<svg width="30" height="30" viewBox="0 0 30 30" fill="none" xmlns="http://www.w3.org/2000/svg">
<path d="M13.7371 27.6816L13.7275 5.39369L9.55306 9.55858C9.43501 9.67965 9.29401 9.77596 9.13829 9.84187C8.98257 9.90779 8.81527 9.94198 8.64618 9.94245C8.39588 9.93892 8.15218 9.86158 7.94564 9.72013C7.7391 9.57868 7.57891 9.37942 7.48515 9.14731C7.39138 8.9152 7.36821 8.66058 7.41855 8.41536C7.46888 8.17014 7.59048 7.94523 7.7681 7.76883L14.1114 1.41593C14.2295 1.29769 14.3697 1.20388 14.5241 1.13988C14.6785 1.07588 14.844 1.04294 15.0111 1.04294C15.1782 1.04294 15.3437 1.07588 15.498 1.13988C15.6524 1.20388 15.7927 1.29769 15.9108 1.41593L22.2541 7.76883C23.4968 8.9684 21.6447 10.8061 20.4547 9.55858L16.2658 5.3697L16.2754 27.6816C16.2861 27.8549 16.2612 28.0284 16.2022 28.1917C16.1432 28.3549 16.0515 28.5043 15.9326 28.6308C15.8137 28.7572 15.6702 28.858 15.5109 28.9268C15.3516 28.9957 15.1798 29.0312 15.0063 29.0312C14.8327 29.0312 14.661 28.9957 14.5017 28.9268C14.3424 28.858 14.1989 28.7572 14.08 28.6308C13.9611 28.5043 13.8693 28.3549 13.8104 28.1917C13.7514 28.0284 13.7265 27.8549 13.7371 27.6816Z" fill="white"/>
</svg>
