<svg width="36" height="36" viewBox="0 0 36 36" fill="none" xmlns="http://www.w3.org/2000/svg">
<g clip-path="url(#clip0_2529_307)">
<path fill-rule="evenodd" clip-rule="evenodd" d="M27.6609 26.3546L27.8377 26.4566C30.1279 27.7789 32.3535 25.1008 33.379 23.3244C34.4046 21.5481 35.6114 18.2817 33.3211 16.9594L33.1443 16.8574C32.9677 16.7558 32.758 16.7284 32.5613 16.7811C32.3645 16.8339 32.1966 16.9624 32.0944 17.1386L31.3875 18.3628C31.286 18.5394 31.2586 18.749 31.3113 18.9458C31.364 19.1426 31.4925 19.3105 31.6687 19.4127L32.0836 19.6518C32.2384 19.7399 32.3576 19.8794 32.4203 20.0461C32.4831 20.2128 32.4855 20.3963 32.4271 20.5646C32.005 21.7808 31.3555 22.9057 30.5134 23.8794C30.3968 24.0141 30.2367 24.1037 30.061 24.1327C29.8852 24.1617 29.7048 24.1283 29.5511 24.0382L29.1363 23.7992C28.9597 23.6977 28.75 23.6702 28.5532 23.7229C28.3564 23.7757 28.1885 23.9042 28.0863 24.0804L27.3797 25.3046C27.2782 25.4812 27.2507 25.6909 27.3035 25.8876C27.3562 26.0844 27.4847 26.2523 27.6609 26.3546ZM10.9327 7.42973C9.90914 7.42973 9.39558 8.66976 10.1193 9.39349C10.1833 9.45752 10.2193 9.54436 10.2193 9.63491C10.2193 9.72546 10.1833 9.8123 10.1193 9.87633L9.38419 10.6114C9.32016 10.6754 9.23332 10.7114 9.14277 10.7114C9.05222 10.7114 8.96538 10.6754 8.90135 10.6114C8.17763 9.88765 6.93766 10.4012 6.93766 11.4247C6.93766 11.5153 6.90169 11.6021 6.83766 11.6662C6.77363 11.7302 6.68678 11.7662 6.59623 11.7662H5.55673C5.51189 11.7662 5.4675 11.7574 5.42607 11.7402C5.38465 11.723 5.34702 11.6979 5.31532 11.6662C5.28362 11.6345 5.25848 11.5968 5.24132 11.5554C5.22417 11.514 5.21535 11.4696 5.21536 11.4247C5.21536 10.3999 3.97624 9.88673 3.2516 10.6114C3.18757 10.6754 3.10073 10.7114 3.01018 10.7114C2.91964 10.7114 2.8328 10.6754 2.76877 10.6114L2.03372 9.87633C1.9697 9.8123 1.93373 9.72546 1.93373 9.63491C1.93373 9.54436 1.9697 9.45752 2.03372 9.39349C2.75738 8.66976 2.24388 7.42973 1.22034 7.42973C1.12979 7.42973 1.04294 7.39376 0.978911 7.32973C0.914879 7.2657 0.878906 7.17885 0.878906 7.08829V6.04887C0.878906 5.95831 0.914879 5.87146 0.978911 5.80743C1.04294 5.7434 1.12979 5.70743 1.22034 5.70743C2.24388 5.70743 2.75738 4.4674 2.03372 3.74374C1.96969 3.6797 1.93372 3.59285 1.93372 3.50229C1.93372 3.41173 1.96969 3.32488 2.03372 3.26083L2.76877 2.52579C2.8328 2.46176 2.91964 2.4258 3.01018 2.4258C3.10073 2.4258 3.18757 2.46176 3.2516 2.52579C3.97533 3.24951 5.21536 2.73595 5.21536 1.71241C5.21535 1.66758 5.22417 1.62318 5.24132 1.58175C5.25848 1.54033 5.28362 1.50269 5.31532 1.47098C5.34702 1.43928 5.38465 1.41413 5.42607 1.39697C5.4675 1.37981 5.51189 1.37097 5.55673 1.37097H6.59623C6.68678 1.37097 6.77363 1.40695 6.83766 1.47098C6.90169 1.53501 6.93766 1.62186 6.93766 1.71241C6.93766 2.73595 8.17763 3.24951 8.90135 2.52579C8.96538 2.46176 9.05222 2.4258 9.14277 2.4258C9.23332 2.4258 9.32016 2.46176 9.38419 2.52579L10.1193 3.26083C10.1833 3.32488 10.2193 3.41173 10.2193 3.50229C10.2193 3.59285 10.1833 3.6797 10.1193 3.74374C9.39558 4.4674 9.90914 5.70743 10.9327 5.70743C10.9775 5.70743 11.0219 5.71626 11.0633 5.73342C11.1048 5.75058 11.1424 5.77573 11.1741 5.80744C11.2058 5.83914 11.2309 5.87678 11.2481 5.91821C11.2652 5.95963 11.2741 6.00403 11.274 6.04887V7.08829C11.2741 7.13313 11.2652 7.17753 11.2481 7.21895C11.2309 7.26038 11.2058 7.29802 11.1741 7.32972C11.1424 7.36143 11.1048 7.38658 11.0633 7.40374C11.0219 7.4209 10.9775 7.42973 10.9327 7.42973ZM6.07648 4.07154C5.58255 4.07154 5.09971 4.218 4.68902 4.49242C4.27833 4.76683 3.95824 5.15687 3.76922 5.6132C3.5802 6.06953 3.53074 6.57167 3.6271 7.05611C3.72346 7.54055 3.96131 7.98553 4.31058 8.3348C4.65984 8.68406 5.10483 8.92191 5.58927 9.01827C6.07371 9.11463 6.57584 9.06518 7.03218 8.87616C7.48851 8.68714 7.87854 8.36704 8.15296 7.95636C8.42737 7.54567 8.57384 7.06283 8.57384 6.5689C8.57385 6.24094 8.50926 5.91618 8.38375 5.61319C8.25825 5.31019 8.0743 5.03488 7.8424 4.80298C7.61049 4.57107 7.33518 4.38712 7.03219 4.26162C6.72919 4.13612 6.40444 4.07153 6.07648 4.07154ZM11.7688 17.1587C12.2061 17.911 12.9233 18.4598 13.7638 18.685C14.6043 18.9103 15.4999 18.7938 16.2548 18.361L18.8292 16.8746L15.545 11.1863L12.9708 12.6722C12.2186 13.1095 11.6699 13.8267 11.4447 14.6672C11.2195 15.5077 11.336 16.4032 11.7688 17.1581V17.1587ZM19.4204 17.6698L17.3568 18.8613L20.743 23.3924C20.7974 23.4643 20.8662 23.5239 20.945 23.5676C21.0238 23.6113 21.1108 23.6381 21.2005 23.6462C21.2903 23.6543 21.3807 23.6436 21.466 23.6147C21.5514 23.5858 21.6297 23.5395 21.6961 23.4786L22.4779 22.769C22.5981 22.6595 22.6731 22.509 22.688 22.347C22.7028 22.1851 22.6566 22.0234 22.5584 21.8938L19.4203 17.6696L19.4204 17.6698ZM30.4898 15.3679C30.8405 15.1641 31.0963 14.8298 31.2013 14.438C31.3063 14.0462 31.2519 13.6288 31.0501 13.2769L24.7711 2.40098C24.5681 2.04937 24.2337 1.7928 23.8416 1.68772C23.4494 1.58263 23.0316 1.63763 22.68 1.84063C22.3284 2.04362 22.0718 2.37798 21.9667 2.77014C21.8616 3.1623 21.9166 3.58015 22.1196 3.93176L28.3992 14.8077C28.603 15.1584 28.9374 15.4141 29.3291 15.5191C29.7209 15.6241 30.1383 15.5697 30.4902 15.3679H30.4898ZM32.3135 9.63044C32.183 9.63044 32.0578 9.57859 31.9655 9.48628C31.8732 9.39398 31.8213 9.26879 31.8213 9.13826C31.8213 9.00772 31.8732 8.88253 31.9655 8.79023C32.0578 8.69792 32.183 8.64607 32.3135 8.64607H34.6289C34.7594 8.64607 34.8846 8.69792 34.9769 8.79023C35.0692 8.88253 35.1211 9.00772 35.1211 9.13826C35.1211 9.26879 35.0692 9.39398 34.9769 9.48628C34.8846 9.57859 34.7594 9.63044 34.6289 9.63044H32.3135ZM29.4117 3.62224C29.3462 3.73448 29.2389 3.81619 29.1133 3.84945C28.9877 3.88271 28.854 3.86481 28.7415 3.79967C28.6291 3.73454 28.547 3.62748 28.5134 3.50197C28.4797 3.37645 28.4972 3.24271 28.562 3.13005L29.7197 1.12481C29.785 1.01212 29.8923 0.929974 30.0182 0.896441C30.144 0.862909 30.278 0.880738 30.3907 0.946006C30.5034 1.01127 30.5855 1.11863 30.619 1.24447C30.6526 1.37031 30.6348 1.50431 30.5695 1.617L29.4117 3.62224ZM32.1526 5.95591C32.0968 5.98798 32.0353 6.00874 31.9715 6.01702C31.9076 6.0253 31.8428 6.02092 31.7807 6.00414C31.7186 5.98737 31.6604 5.95852 31.6094 5.91924C31.5584 5.87997 31.5157 5.83104 31.4836 5.77524C31.4515 5.71945 31.4307 5.65789 31.4225 5.59407C31.4142 5.53025 31.4186 5.46543 31.4354 5.4033C31.4521 5.34117 31.481 5.28295 31.5203 5.23198C31.5595 5.181 31.6085 5.13825 31.6642 5.10619L33.5652 4.00826C33.6778 3.94503 33.8108 3.92881 33.9353 3.9631C34.0598 3.9974 34.1657 4.07944 34.2301 4.19141C34.2944 4.30337 34.312 4.43621 34.2789 4.56104C34.2458 4.68587 34.1649 4.79261 34.0535 4.85805L32.1526 5.95591ZM16.4985 10.8682L19.5811 16.2075C22.2384 15.1233 24.8251 14.5442 27.0738 14.4814L21.7397 5.24238C20.5609 7.1584 18.766 9.10901 16.4985 10.8682ZM27.9281 5.90114C28.2876 5.83607 28.6584 5.8836 28.9899 6.03724C29.3213 6.19088 29.5972 6.44313 29.7799 6.75952C29.9626 7.0759 30.0431 7.44097 30.0104 7.80483C29.9777 8.1687 29.8335 8.5136 29.5974 8.79239L27.9281 5.90114ZM26.0247 27.9848H18.1801C18.0084 27.9853 17.8438 28.0538 17.7224 28.1752C17.601 28.2966 17.5326 28.4611 17.5321 28.6328V34.473C17.5326 34.6447 17.601 34.8092 17.7224 34.9306C17.8438 35.052 18.0084 35.1205 18.1801 35.121H26.0247C26.1964 35.1205 26.3609 35.052 26.4823 34.9306C26.6037 34.8092 26.6722 34.6447 26.6727 34.473V28.6328C26.6722 28.4611 26.6038 28.2966 26.4823 28.1752C26.3609 28.0538 26.1964 27.9853 26.0247 27.9848ZM23.1903 31.7356L21.0145 32.9917C20.9824 33.0102 20.946 33.02 20.909 33.02C20.872 33.02 20.8356 33.0102 20.8035 32.9917C20.7714 32.9731 20.7448 32.9465 20.7263 32.9144C20.7078 32.8823 20.6981 32.8459 20.6981 32.8089V30.2966C20.6981 30.2596 20.7078 30.2232 20.7263 30.1911C20.7448 30.159 20.7714 30.1324 20.8035 30.1138C20.8356 30.0953 20.872 30.0856 20.909 30.0855C20.946 30.0855 20.9824 30.0953 21.0145 30.1138L23.1903 31.3699C23.2224 31.3884 23.2491 31.4151 23.2676 31.4472C23.2862 31.4793 23.296 31.5157 23.296 31.5528C23.296 31.5898 23.2862 31.6262 23.2676 31.6583C23.2491 31.6904 23.2224 31.7171 23.1903 31.7356ZM20.991 16.7203C20.7144 16.8198 20.4414 16.9232 20.172 17.0306L23.3486 21.3065C23.5915 21.6327 23.7047 22.0375 23.666 22.4423C23.6274 22.8472 23.4398 23.2233 23.1395 23.4977L22.3577 24.2072C22.1897 24.3602 21.9916 24.4764 21.7761 24.5484C21.5606 24.6204 21.3324 24.6466 21.1062 24.6253C20.88 24.6041 20.6607 24.5358 20.4624 24.4249C20.2641 24.314 20.0911 24.163 19.9545 23.9814L18.0579 21.4436H7.01887C6.88834 21.4436 6.76315 21.3917 6.67085 21.2994C6.57854 21.2071 6.52669 21.0819 6.52669 20.9514C6.52669 20.8209 6.57854 20.6957 6.67085 20.6034C6.76315 20.5111 6.88834 20.4592 7.01887 20.4592H17.3223L16.4923 19.3483C15.7921 19.6932 15.0105 19.8391 14.233 19.7701C13.4555 19.7011 12.7119 19.4199 12.0833 18.9571C11.4548 18.4943 10.9654 17.8678 10.6686 17.1458C10.3719 16.4239 10.2791 15.6343 10.4005 14.8632C4.95703 15.652 0.878906 18.8947 0.878906 22.7759C0.878906 25.5627 2.98174 28.0205 6.18258 29.4767L4.99655 34.5861C4.9869 34.6277 4.99007 34.6712 5.00564 34.7109C5.02122 34.7506 5.04847 34.7846 5.0838 34.8085C5.11913 34.8324 5.16088 34.8451 5.20353 34.8448C5.24619 34.8445 5.28775 34.8312 5.32273 34.8068L11.1005 30.7757C11.7211 30.84 12.3446 30.8721 12.9685 30.8719C14.1706 30.8738 15.3698 30.7529 16.5474 30.5111V28.6328C16.548 28.2 16.7202 27.7851 17.0263 27.4791C17.3324 27.1731 17.7473 27.001 18.1801 27.0004H23.2832C24.4088 25.7706 25.0582 24.3241 25.0582 22.7759C25.0582 20.3663 23.4856 18.2032 20.991 16.7203ZM18.9181 25.0925H7.01887C6.88834 25.0925 6.76315 25.0407 6.67085 24.9484C6.57854 24.8561 6.52669 24.7309 6.52669 24.6003C6.52669 24.4698 6.57854 24.3446 6.67085 24.2523C6.76315 24.16 6.88834 24.1081 7.01887 24.1081H18.9181C19.0487 24.1081 19.1739 24.16 19.2662 24.2523C19.3585 24.3446 19.4103 24.4698 19.4103 24.6003C19.4103 24.7309 19.3585 24.8561 19.2662 24.9484C19.1739 25.0407 19.0487 25.0925 18.9181 25.0925Z" fill="white"/>
</g>
<defs>
<clipPath id="clip0_2529_307">
<rect width="36" height="36" fill="white"/>
</clipPath>
</defs>
</svg>
