<svg width="25" height="12" viewBox="0 0 25 12" fill="none" xmlns="http://www.w3.org/2000/svg">
<path d="M0.67765 6.68213H18.1783C18.5508 6.68213 18.8555 6.37572 18.8555 6.00122C18.8555 5.62672 18.5508 5.32031 18.1783 5.32031H0.67765C0.305223 5.32031 0.000511169 5.62672 0.000511169 6.00122C0.000511169 6.37572 0.305223 6.68213 0.67765 6.68213Z" fill="white"/>
<path fill-rule="evenodd" clip-rule="evenodd" d="M24.3229 5.32031C23.9504 5.32031 23.6457 5.62672 23.6457 6.00122C23.6457 6.37572 23.9504 6.68213 24.3229 6.68213C24.6953 6.68213 25 6.37572 25 6.00122C25 5.62672 24.6987 5.32031 24.3229 5.32031Z" fill="white"/>
<path d="M21.2525 6.68213C20.8786 6.68213 20.5754 6.37728 20.5754 6.00122C20.5754 5.62517 20.8786 5.32031 21.2525 5.32031C21.6265 5.32031 21.9297 5.62517 21.9297 6.00122C21.9297 6.37728 21.6265 6.68213 21.2525 6.68213Z" fill="white"/>
<path d="M5.17742 12C5.30638 11.9989 5.43238 11.9609 5.54069 11.8905C5.64901 11.8201 5.73517 11.7202 5.78913 11.6024C5.84308 11.4846 5.86261 11.3538 5.84542 11.2253C5.82823 11.0967 5.77503 10.9758 5.69204 10.8765L1.56826 6.00118L5.69204 1.12246C5.93581 0.836474 5.89857 0.407501 5.61417 0.162373C5.32977 -0.0827546 4.90317 -0.0453033 4.6594 0.240679L0.163196 5.55859C-0.0501032 5.81393 -0.0501032 6.18503 0.163196 6.44037L4.6594 11.7617C4.79483 11.9217 4.98443 12 5.17742 12Z" fill="white"/>
</svg>
