<svg width="36" height="36" viewBox="0 0 36 36" fill="none" xmlns="http://www.w3.org/2000/svg">
<g clip-path="url(#clip0_2529_279)">
<path d="M17.3789 13.6552V14.8965H15.5119L16.4156 17.3793H17.3789V18.6207H16.8675L17.7842 21.1394L20.0696 13.8774L21.1031 12.2971V0H14.8962V2.48276H17.3789V3.72414H14.8962V6.20689H17.3789V7.44827H14.8962V9.93103H17.3789V11.1724H14.8962V13.2045L15.06 13.6552H17.3789ZM13.8795 24.9312C14.6268 25.3762 15.4411 25.6975 16.2909 25.8828L17.1716 23.0859L11.5445 7.62952L8.04501 8.90317L13.8795 24.9312ZM11.1211 6.46262L7.46094 1.85028L7.6217 7.73627L11.1211 6.46262ZM17.9996 26.069C19.1482 26.0683 20.2832 25.8215 21.3284 25.3452L25.8104 16.2621L26.4751 12.6987C26.351 12.7111 26.2219 12.7322 26.094 12.7322C25.5396 12.7343 24.9915 12.6148 24.4884 12.3821C23.9852 12.1494 23.5392 11.8091 23.1818 11.3853L21.2024 14.4137L17.5403 26.0466C17.6936 26.0553 17.8457 26.069 17.9996 26.069ZM25.1251 11.3065C26.7153 11.9452 28.6382 10.885 29.4197 8.93855C30.2011 6.99207 28.8244 2.08986 28.8244 2.08986C28.8244 2.08986 24.4405 4.68062 23.6591 6.62648C22.8776 8.57234 23.5343 10.6678 25.1251 11.3065Z" fill="white"/>
<path d="M35.7269 21.1034C36.091 19.0504 36.091 16.9494 35.7269 14.8965H26.7765C27.1313 15.8927 27.3119 16.9425 27.3103 17.9999C27.3103 20.4692 26.3294 22.8373 24.5834 24.5833C22.8374 26.3294 20.4693 27.3103 18 27.3103C15.5307 27.3103 13.1626 26.3294 11.4166 24.5833C9.67056 22.8373 8.68965 20.4692 8.68965 17.9999C8.68811 16.9425 8.86868 15.8927 9.22345 14.8965H0.273104C-0.0910348 16.9494 -0.0910348 19.0504 0.273104 21.1034H4.06552C4.4253 22.72 5.0638 24.2616 5.95241 25.6592L3.27104 28.3406C4.46149 30.0525 5.94748 31.5384 7.65931 32.7289L10.3407 30.0475C11.7383 30.9361 13.2799 31.5746 14.8966 31.9344V35.7268C16.9495 36.091 19.0505 36.091 21.1034 35.7268V31.9344C22.7201 31.5746 24.2617 30.9361 25.6593 30.0475L28.3407 32.7289C30.0525 31.5384 31.5385 30.0525 32.729 28.3406L30.0476 25.6592C30.9362 24.2616 31.5747 22.72 31.9345 21.1034H35.7269Z" fill="white"/>
</g>
<defs>
<clipPath id="clip0_2529_279">
<rect width="36" height="36" fill="white"/>
</clipPath>
</defs>
</svg>
