<svg width="25" height="12" viewBox="0 0 25 12" fill="none" xmlns="http://www.w3.org/2000/svg">
<path d="M24.3224 6.68213H6.82167C6.44924 6.68213 6.14453 6.37572 6.14453 6.00122C6.14453 5.62672 6.44924 5.32031 6.82167 5.32031H24.3224C24.6948 5.32031 24.9995 5.62672 24.9995 6.00122C24.9995 6.37572 24.6948 6.68213 24.3224 6.68213Z" fill="#821000"/>
<path fill-rule="evenodd" clip-rule="evenodd" d="M0.677141 5.32031C1.04957 5.32031 1.35428 5.62672 1.35428 6.00122C1.35428 6.37572 1.04957 6.68213 0.677141 6.68213C0.304713 6.68213 0 6.37572 0 6.00122C0 5.62672 0.301328 5.32031 0.677141 5.32031Z" fill="#821000"/>
<path d="M3.74745 6.68213C4.12143 6.68213 4.42459 6.37728 4.42459 6.00122C4.42459 5.62517 4.12143 5.32031 3.74745 5.32031C3.37348 5.32031 3.07031 5.62517 3.07031 6.00122C3.07031 6.37728 3.37348 6.68213 3.74745 6.68213Z" fill="#821000"/>
<path d="M19.8226 12C19.6936 11.9989 19.5676 11.9609 19.4593 11.8905C19.351 11.8201 19.2648 11.7202 19.2109 11.6024C19.1569 11.4846 19.1374 11.3538 19.1546 11.2253C19.1718 11.0967 19.225 10.9758 19.308 10.8765L23.4317 6.00118L19.308 1.12246C19.0642 0.836474 19.1014 0.407501 19.3858 0.162373C19.6702 -0.0827546 20.0968 -0.0453033 20.3406 0.240679L24.8368 5.55859C25.0501 5.81393 25.0501 6.18503 24.8368 6.44037L20.3406 11.7617C20.2052 11.9217 20.0156 12 19.8226 12Z" fill="#821000"/>
</svg>
