<svg width="36" height="36" viewBox="0 0 36 36" fill="none" xmlns="http://www.w3.org/2000/svg">
<g clip-path="url(#clip0_2529_267)">
<path d="M29.4757 20.2308C29.9145 20.6695 30.1873 21.277 30.1873 21.9471C30.1873 22.6186 29.9145 23.2247 29.4757 23.6648C29.0355 24.1036 28.4295 24.3743 27.7594 24.3743C27.0879 24.3743 26.4818 24.1036 26.0416 23.6648C25.6029 23.2247 25.3322 22.6186 25.3322 21.9471C25.3322 21.2777 25.6036 20.6695 26.0416 20.2308C26.4818 19.792 27.0879 19.5192 27.7594 19.5192C28.4295 19.5192 29.0355 19.792 29.4757 20.2308ZM36.0014 21.4366V22.459C36.0014 22.7641 35.8123 23.025 35.5212 23.1185L34.7955 23.3534C34.5684 23.4272 34.4067 23.5945 34.3434 23.8237C34.1992 24.329 33.9972 24.816 33.7416 25.275C33.6263 25.4824 33.622 25.7152 33.7296 25.9268L34.0763 26.6081C34.2155 26.8788 34.1641 27.1959 33.949 27.4132L33.2255 28.1367C33.0103 28.3519 32.6932 28.4018 32.4204 28.264L31.7391 27.9173C31.5281 27.8077 31.2947 27.8119 31.0873 27.9293C30.6286 28.1853 30.1416 28.3866 29.636 28.5291C29.4068 28.5952 29.2395 28.7562 29.1677 28.9833L28.9308 29.7089C28.8373 30 28.5778 30.187 28.2713 30.187H27.2489C26.9438 30.187 26.6829 29.9993 26.5894 29.7089L26.3545 28.9833C26.2807 28.7562 26.1134 28.5944 25.8841 28.5291C25.3786 28.3865 24.8916 28.1852 24.4329 27.9293C24.2255 27.814 23.9927 27.8077 23.7811 27.9173L23.0998 28.264C22.8284 28.4018 22.512 28.3519 22.2947 28.1367L21.5712 27.4132C21.356 27.1959 21.3061 26.8788 21.4439 26.6081L21.7905 25.9268C21.9002 25.7159 21.896 25.4824 21.7786 25.275C21.5226 24.8164 21.3213 24.3293 21.1788 23.8237C21.1127 23.5945 20.9517 23.4272 20.7246 23.3534L19.999 23.1185C19.7079 23.025 19.5209 22.7634 19.5209 22.459V21.4366C19.5209 21.1294 19.7079 20.8706 19.999 20.7771L20.7267 20.5402C20.9517 20.4663 21.1134 20.3011 21.1788 20.0719C21.3223 19.5667 21.5236 19.0797 21.7786 18.6206C21.896 18.4132 21.9002 18.1805 21.7905 17.9688L21.4439 17.2875C21.3061 17.0147 21.356 16.6976 21.5712 16.4824L22.2947 15.7589C22.512 15.5437 22.8291 15.4917 23.0998 15.6316L23.7811 15.9783C23.992 16.0859 24.2255 16.0816 24.4329 15.9663C24.8871 15.7132 25.3737 15.51 25.8841 15.3645C26.1134 15.3005 26.2807 15.1395 26.3545 14.9123L26.5894 14.1867C26.6829 13.8956 26.9445 13.7065 27.2489 13.7065H28.2713C28.5785 13.7065 28.8373 13.8956 28.9308 14.1867L29.1677 14.9123C29.2395 15.1395 29.4068 15.3012 29.636 15.3645C30.1413 15.5087 30.6282 15.7106 31.0873 15.9663C31.2947 16.0816 31.5274 16.0859 31.7391 15.9783L32.4204 15.6316C32.6932 15.4924 33.0103 15.5437 33.2255 15.7589L33.949 16.4824C34.1641 16.6976 34.2162 17.0147 34.0763 17.2875L33.7296 17.9688C33.622 18.1798 33.6263 18.4132 33.7416 18.6206C33.9947 19.0748 34.1979 19.5614 34.3434 20.0719C34.4074 20.3011 34.5684 20.4684 34.7955 20.5402L35.5212 20.7771C35.8123 20.8706 36.0014 21.1294 36.0014 21.4366ZM31.3474 21.9471C31.3474 20.9564 30.9466 20.0599 30.297 19.4102C29.6473 18.7605 28.7501 18.3577 27.7594 18.3577C26.7666 18.3577 25.8701 18.7605 25.2204 19.4102C24.5707 20.0599 24.1699 20.9571 24.1699 21.9471C24.1699 22.9399 24.5707 23.8364 25.2204 24.4861C25.8701 25.1358 26.7673 25.5366 27.7594 25.5366C28.7501 25.5366 29.6466 25.1358 30.297 24.4861C30.9466 23.8364 31.3474 22.9392 31.3474 21.9471ZM19.9568 29.6245H17.4192L16.6458 27.468H11.1108L10.3395 29.6245H7.80188C7.48125 29.6245 7.21969 29.884 7.21969 30.2046C7.21969 30.5252 7.48055 30.7868 7.80188 30.7868H19.9561C20.2767 30.7868 20.5383 30.5259 20.5383 30.2046C20.539 29.8833 20.2781 29.6245 19.9568 29.6245ZM18.3825 21.1174H0V7.03242C0 6.03187 0.819141 5.21484 1.81969 5.21484H25.9404C26.9409 5.21484 27.7601 6.03187 27.7601 7.03242V12.5435H27.2482C26.4389 12.5435 25.7337 13.0575 25.4841 13.8274L25.3223 14.3196C24.8977 14.4553 24.4849 14.6269 24.0884 14.8322L23.6257 14.5966C22.9064 14.2296 22.043 14.3653 21.4713 14.9377L20.7478 15.6612C20.1755 16.2314 20.0405 17.0941 20.4068 17.8155L20.6416 18.2782C20.4384 18.6748 20.2669 19.0875 20.1312 19.5122L19.6369 19.6718C18.9724 19.8877 18.4978 20.4459 18.3825 21.1174ZM7.31039 13.4562L11.1572 11.3074C11.4363 11.152 11.5376 10.7991 11.3822 10.5199C11.2268 10.2408 10.8738 10.1395 10.5947 10.2949L5.84719 12.9457C5.75037 12.9993 5.6703 13.0786 5.61586 13.1749C5.46047 13.4541 5.56172 13.807 5.84086 13.9624L10.5947 16.6174C10.8738 16.7728 11.2268 16.673 11.3822 16.3924C11.5376 16.1133 11.4363 15.7603 11.1572 15.6049L7.31039 13.4562ZM15.0019 8.56312C14.689 8.49141 14.3782 8.68687 14.3065 8.99976L12.3237 17.6559C12.252 17.9667 12.4474 18.2775 12.7582 18.3492C13.0711 18.4209 13.3819 18.2255 13.4536 17.9126L15.4364 9.25851C15.5081 8.94562 15.3127 8.63484 15.0019 8.56312ZM17.1647 16.6174L21.9185 13.9624C22.1977 13.807 22.2989 13.4541 22.1435 13.1749C22.0893 13.0784 22.0092 12.9991 21.9122 12.9457L17.1647 10.2949C16.8855 10.1395 16.5326 10.2408 16.3772 10.5199C16.2218 10.7991 16.323 11.152 16.6022 11.3074L20.449 13.4562L16.6022 15.6049C16.323 15.7603 16.2218 16.1133 16.3772 16.3924C16.5326 16.673 16.8855 16.7728 17.1647 16.6174ZM19.6383 24.2231C18.8691 23.9742 18.3565 23.2683 18.3565 22.459V22.2797H0V24.4882C0 25.4866 0.819141 26.3058 1.81969 26.3058H20.3098C20.3379 26.2298 20.3695 26.1546 20.4075 26.0808L20.6423 25.6181C20.4389 25.2211 20.2675 24.8085 20.1298 24.3841L19.6383 24.2231Z" fill="white"/>
</g>
<defs>
<clipPath id="clip0_2529_267">
<rect width="36" height="36" fill="white"/>
</clipPath>
</defs>
</svg>
