<svg width="14" height="14" viewBox="0 0 14 14" fill="none" xmlns="http://www.w3.org/2000/svg">
<g clip-path="url(#clip0_2529_434)">
<path fill-rule="evenodd" clip-rule="evenodd" d="M1.45832 1.44676H3.54709V0.297872C3.54709 0.133804 3.68089 0 3.84496 0H4.51636C4.68043 0 4.81423 0.133804 4.81423 0.297872V1.44676H9.18577V0.297872C9.18577 0.133804 9.31957 0 9.48364 0H10.155C10.3191 0 10.4529 0.133804 10.4529 0.297872V1.44676H12.5417C13.3449 1.44676 14 2.10187 14 2.90508V3.83948H0V2.90508C0 2.10187 0.655109 1.44676 1.45832 1.44676ZM14 4.5544V12.5417C14 13.3449 13.3449 14 12.5417 14H1.45832C0.655109 14 0 13.3449 0 12.5417V4.5544H14ZM2.33165 6.29746V8.10646H4.14063V6.29746H2.33165ZM2.33165 10.0905V11.8995H4.14063V10.0905H2.33165ZM9.85935 10.0905V11.8995H11.6684V10.0905H9.85935ZM6.0955 10.0905V11.8995H7.90447V10.0905H6.0955ZM9.85935 6.29746V8.10646H11.6684V6.29746H9.85935ZM6.0955 6.29746V8.10646H7.90447V6.29746H6.0955Z" fill="#00BF91"/>
</g>
<defs>
<clipPath id="clip0_2529_434">
<rect width="14" height="14" fill="white"/>
</clipPath>
</defs>
</svg>
