<svg width="16" height="20" viewBox="0 0 16 20" fill="none" xmlns="http://www.w3.org/2000/svg">
<path d="M8 0C3.72587 0 0.25 3.36375 0.25 7.5C0.25 12.6987 7.24567 19.5287 7.54275 19.8175C7.66933 19.9387 7.83467 20 8 20C8.16533 20 8.33067 19.9387 8.45725 19.8175C8.75433 19.5287 15.75 12.6987 15.75 7.5C15.75 3.36375 12.2741 0 8 0ZM8 18.4713C6.45775 16.8738 1.54167 11.4713 1.54167 7.5C1.54167 4.05375 4.43887 1.25 8 1.25C11.5611 1.25 14.4583 4.05375 14.4583 7.5C14.4583 11.4675 9.54225 16.8738 8 18.4713Z" fill="#E8533F"/>
<path d="M8 3.75C5.86358 3.75 4.125 5.4325 4.125 7.5C4.125 9.5675 5.86358 11.25 8 11.25C10.1364 11.25 11.875 9.5675 11.875 7.5C11.875 5.4325 10.1364 3.75 8 3.75ZM8 10C6.57529 10 5.41667 8.87875 5.41667 7.5C5.41667 6.12125 6.57529 5 8 5C9.42471 5 10.5833 6.12125 10.5833 7.5C10.5833 8.87875 9.42471 10 8 10Z" fill="#E8533F"/>
</svg>
