<svg width="36" height="36" viewBox="0 0 36 36" fill="none" xmlns="http://www.w3.org/2000/svg">
<g clip-path="url(#clip0_2529_319)">
<path d="M17.9996 21.477C21.1162 20.344 25.9824 17.2969 25.9824 12.4266V2.62143C25.9824 2.16067 25.6089 1.78717 25.1482 1.78717C23.0334 1.78717 20.5005 1.15204 18.3726 0.0880683C18.2568 0.030152 18.1291 0 17.9996 0C17.8701 0 17.7423 0.030152 17.6265 0.0880683C15.4987 1.15197 12.9657 1.78717 10.851 1.78717C10.3902 1.78717 10.0167 2.16067 10.0167 2.62143V12.4266C10.0168 17.2969 14.8831 20.3439 17.9996 21.477ZM13.8648 8.93162C14.2766 8.51973 14.9444 8.51973 15.3563 8.93162L17.4348 11.0101L21.7726 6.67227C22.1844 6.26038 22.8522 6.26038 23.2641 6.67227C23.676 7.08416 23.676 7.75192 23.2641 8.16381L18.1805 13.2474C17.9746 13.4534 17.7047 13.5564 17.4348 13.5564C17.165 13.5564 16.895 13.4534 16.6891 13.2474L13.8648 10.4232C13.4529 10.0113 13.4529 9.34351 13.8648 8.93162ZM25.9075 33.8907H23.5731V31.3313H12.4262V33.8907H10.0918C9.50933 33.8907 9.03711 34.3629 9.03711 34.9454C9.03711 35.5278 9.50933 36 10.0918 36H25.9075C26.4899 36 26.9622 35.5278 26.9622 34.9454C26.9622 34.3629 26.4899 33.8907 25.9075 33.8907Z" fill="white"/>
<path d="M32.686 4.51855H28.0922V12.4264C28.0922 15.2015 26.8518 17.8133 24.505 19.9795C22.1215 22.1797 19.3951 23.2403 18.3336 23.5942C18.1171 23.6663 17.8831 23.6663 17.6666 23.5942C16.605 23.2403 13.8786 22.1798 11.4951 19.9795C9.14836 17.8133 7.90791 15.2015 7.90791 12.4264V4.51855H3.31404C1.48669 4.51855 0 6.00524 0 7.83259V25.9076C0 27.735 1.48669 29.2217 3.31404 29.2217H32.6859C34.5132 29.2217 35.9999 27.735 35.9999 25.9076V7.83259C36 6.00524 34.5133 4.51855 32.686 4.51855Z" fill="white"/>
</g>
<defs>
<clipPath id="clip0_2529_319">
<rect width="36" height="36" fill="white"/>
</clipPath>
</defs>
</svg>
