<svg width="16" height="16" viewBox="0 0 16 16" fill="none" xmlns="http://www.w3.org/2000/svg">
<path d="M14.8783 3.94861C14.7898 2.47707 13.561 1.3242 12.0811 1.3242H11.3606V0.764153C11.3606 0.615618 11.3016 0.473167 11.1965 0.368137C11.0915 0.263107 10.9491 0.204102 10.8005 0.204102C10.652 0.204102 10.5095 0.263107 10.4045 0.368137C10.2995 0.473167 10.2405 0.615618 10.2405 0.764153V1.3242H5.76006V0.764153C5.76006 0.615618 5.70105 0.473167 5.59602 0.368137C5.49099 0.263107 5.34854 0.204102 5.20001 0.204102C5.05147 0.204102 4.90902 0.263107 4.80399 0.368137C4.69896 0.473167 4.63996 0.615618 4.63996 0.764153V1.3242H3.91945C2.43923 1.3242 1.21048 2.47707 1.12227 3.94861C0.956218 6.71638 0.959298 9.52392 1.13151 12.2931C1.21888 13.6994 2.34543 14.8259 3.75171 14.9133C5.16108 15.0009 6.58053 15.0446 7.99999 15.0446C9.41916 15.0446 10.8389 15.0009 12.2483 14.9133C13.6545 14.8259 14.7811 13.6994 14.8685 12.2931C15.041 9.52532 15.044 6.71806 14.8783 3.94861ZM13.7509 12.2236C13.7249 12.632 13.551 13.0169 13.2617 13.3062C12.9723 13.5955 12.5874 13.7695 12.1791 13.7954C9.40627 13.9676 6.59426 13.9676 3.82144 13.7954C3.41309 13.7695 3.0282 13.5955 2.73887 13.3062C2.44954 13.0169 2.27561 12.632 2.24966 12.2236C2.11839 10.0866 2.08877 7.94449 2.16089 5.80462H13.8399C13.9105 7.94401 13.8833 10.0954 13.7509 12.2236ZM5.20001 3.56441C5.34854 3.56441 5.49099 3.5054 5.59602 3.40037C5.70105 3.29534 5.76006 3.15289 5.76006 3.00436V2.44431H10.2405V3.00436C10.2405 3.15289 10.2995 3.29534 10.4045 3.40037C10.5095 3.5054 10.652 3.56441 10.8005 3.56441C10.9491 3.56441 11.0915 3.5054 11.1965 3.40037C11.3016 3.29534 11.3606 3.15289 11.3606 3.00436V2.44431H12.0811C12.9696 2.44431 13.7072 3.13457 13.7601 4.01553C13.7733 4.23787 13.7789 4.46161 13.7898 4.68451H2.21073C2.22193 4.46161 2.22725 4.23787 2.24042 4.01553C2.29334 3.13457 3.03065 2.44431 3.91945 2.44431H4.63996V3.00436C4.63996 3.15289 4.69896 3.29534 4.80399 3.40037C4.90902 3.5054 5.05147 3.56441 5.20001 3.56441Z" fill="#4C6FFA"/>
<path d="M5.19945 9.16551C5.66341 9.16551 6.03953 8.78939 6.03953 8.32543C6.03953 7.86147 5.66341 7.48535 5.19945 7.48535C4.73549 7.48535 4.35938 7.86147 4.35938 8.32543C4.35938 8.78939 4.73549 9.16551 5.19945 9.16551Z" fill="#4C6FFA"/>
<path d="M8.00023 9.16551C8.4642 9.16551 8.84031 8.78939 8.84031 8.32543C8.84031 7.86147 8.4642 7.48535 8.00023 7.48535C7.53627 7.48535 7.16016 7.86147 7.16016 8.32543C7.16016 8.78939 7.53627 9.16551 8.00023 9.16551Z" fill="#4C6FFA"/>
<path d="M5.19945 11.9653C5.66341 11.9653 6.03953 11.5892 6.03953 11.1252C6.03953 10.6613 5.66341 10.2852 5.19945 10.2852C4.73549 10.2852 4.35938 10.6613 4.35938 11.1252C4.35938 11.5892 4.73549 11.9653 5.19945 11.9653Z" fill="#4C6FFA"/>
<path d="M10.801 9.16551C11.265 9.16551 11.6411 8.78939 11.6411 8.32543C11.6411 7.86147 11.265 7.48535 10.801 7.48535C10.3371 7.48535 9.96094 7.86147 9.96094 8.32543C9.96094 8.78939 10.3371 9.16551 10.801 9.16551Z" fill="#4C6FFA"/>
<path d="M10.801 11.9653C11.265 11.9653 11.6411 11.5892 11.6411 11.1252C11.6411 10.6613 11.265 10.2852 10.801 10.2852C10.3371 10.2852 9.96094 10.6613 9.96094 11.1252C9.96094 11.5892 10.3371 11.9653 10.801 11.9653Z" fill="#4C6FFA"/>
<path d="M8.00023 11.9653C8.4642 11.9653 8.84031 11.5892 8.84031 11.1252C8.84031 10.6613 8.4642 10.2852 8.00023 10.2852C7.53627 10.2852 7.16016 10.6613 7.16016 11.1252C7.16016 11.5892 7.53627 11.9653 8.00023 11.9653Z" fill="#4C6FFA"/>
</svg>
