<svg width="20" height="14" viewBox="0 0 20 14" fill="none" xmlns="http://www.w3.org/2000/svg">
<g clip-path="url(#clip0_2529_222)">
<path d="M17.7937 0.675293H4.95571C3.73911 0.675293 2.74934 1.66506 2.74934 2.88166V6.07011H0.631759C0.282852 6.07011 0 6.353 0 6.70191C0 7.05081 0.282852 7.33367 0.631759 7.33367H2.74934V9.02996H1.69282C1.34391 9.02996 1.06106 9.31281 1.06106 9.66172C1.06106 10.0106 1.34391 10.2935 1.69282 10.2935H2.7493V11.1187C2.7493 12.3354 3.73907 13.3251 4.95567 13.3251H17.7936C19.0102 13.3251 20 12.3354 20 11.1187V2.8817C20 1.6651 19.0103 0.675293 17.7937 0.675293ZM4.95571 1.93885H17.7937C18.0177 1.93885 18.2237 2.01756 18.3856 2.14858L12.2539 6.64808C11.7362 7.02792 11.0131 7.02792 10.4955 6.64808L4.36376 2.14858C4.52567 2.01756 4.73165 1.93885 4.95571 1.93885ZM18.7365 11.1187C18.7365 11.6386 18.3136 12.0616 17.7937 12.0616H4.95571C4.43583 12.0616 4.01286 11.6387 4.01286 11.1187V10.2935H6.39185C6.74076 10.2935 7.02361 10.0106 7.02361 9.66172C7.02361 9.31281 6.74076 9.02996 6.39185 9.02996H4.01286V3.45831L9.74803 7.66675C10.2269 8.01824 10.8007 8.19386 11.3747 8.19386C11.9485 8.19386 12.5225 8.01816 13.0013 7.66675L18.7365 3.45831V11.1187H18.7365Z" fill="#E8533F"/>
</g>
<defs>
<clipPath id="clip0_2529_222">
<rect width="20" height="14" fill="white"/>
</clipPath>
</defs>
</svg>
