<svg width="14" height="14" viewBox="0 0 14 14" fill="none" xmlns="http://www.w3.org/2000/svg">
<g clip-path="url(#clip0_2529_442)">
<path d="M7.14648 1.16667H6.50482C6.31232 0.495833 5.69398 0 4.95898 0C4.22398 0 3.60565 0.495833 3.41315 1.16667H2.77148C2.53232 1.16667 2.33398 1.365 2.33398 1.60417V2.47917C2.33398 3.03917 2.79482 3.5 3.35482 3.5H6.56315C7.12315 3.5 7.58398 3.03917 7.58398 2.47917V1.60417C7.58398 1.365 7.38565 1.16667 7.14648 1.16667Z" fill="#4C6FFA"/>
<path d="M8.3125 1.75H8.16667V2.47917C8.16667 3.36583 7.44917 4.08333 6.5625 4.08333H3.35417C2.4675 4.08333 1.75 3.36583 1.75 2.47917V1.75H1.60417C0.7175 1.75 0 2.4675 0 3.35417V10.6458C0 11.5325 0.7175 12.25 1.60417 12.25H5.90917L6.0375 11.5325C6.09583 11.2058 6.2475 10.9142 6.48083 10.675L6.9475 10.2083H2.1875C1.94833 10.2083 1.75 10.01 1.75 9.77083C1.75 9.53167 1.94833 9.33333 2.1875 9.33333H7.72917C7.75833 9.33333 7.78167 9.33333 7.81083 9.345H7.81667L9.91667 7.245V3.35417C9.91667 2.4675 9.19917 1.75 8.3125 1.75ZM7.72917 8.3125H2.1875C1.94833 8.3125 1.75 8.11417 1.75 7.875C1.75 7.63583 1.94833 7.4375 2.1875 7.4375H7.72917C7.96833 7.4375 8.16667 7.63583 8.16667 7.875C8.16667 8.11417 7.96833 8.3125 7.72917 8.3125ZM7.72917 6.41667H2.1875C1.94833 6.41667 1.75 6.21833 1.75 5.97917C1.75 5.74 1.94833 5.54167 2.1875 5.54167H7.72917C7.96833 5.54167 8.16667 5.74 8.16667 5.97917C8.16667 6.21833 7.96833 6.41667 7.72917 6.41667ZM7.30742 14C7.24345 14.0002 7.18023 13.9863 7.12224 13.9593C7.06424 13.9323 7.01289 13.8929 6.97181 13.8439C6.93074 13.7948 6.90095 13.7374 6.88455 13.6755C6.86815 13.6137 6.86554 13.549 6.87692 13.4861L7.18608 11.7332C7.20175 11.6448 7.24409 11.5634 7.30742 11.4998L11.6387 7.16917C12.1707 6.636 12.6933 6.78008 12.9792 7.06592L13.7008 7.7875C13.7956 7.8823 13.8708 7.99484 13.9221 8.1187C13.9734 8.24256 13.9998 8.37531 13.9998 8.50938C13.9998 8.64344 13.9734 8.7762 13.9221 8.90006C13.8708 9.02392 13.7956 9.13646 13.7008 9.23125L9.3695 13.5625C9.30626 13.6263 9.22468 13.6687 9.13617 13.6838L7.38325 13.993C7.35824 13.9976 7.33286 14 7.30742 14Z" fill="#4C6FFA"/>
</g>
<defs>
<clipPath id="clip0_2529_442">
<rect width="14" height="14" fill="white"/>
</clipPath>
</defs>
</svg>
