<svg width="24" height="24" viewBox="0 0 24 24" fill="none" xmlns="http://www.w3.org/2000/svg">
<g clip-path="url(#clip0_2529_177)">
<path d="M12 0C5.37225 0 0 5.37225 0 12C0 18.627 5.37225 24 12 24C18.6278 24 24 18.627 24 12C24 5.37225 18.6278 0 12 0Z" fill="#B99F9F"/>
<path d="M10.2672 18.6773H13.0264V11.9993H14.8669L15.1107 9.69825H13.0264L13.0294 8.54625C13.0294 7.94625 13.0864 7.6245 13.9474 7.6245H15.0979V5.32275H13.2567C11.0449 5.32275 10.2672 6.4395 10.2672 8.31675V9.69825H8.88867V12H10.2672V18.6773Z" fill="white"/>
</g>
<defs>
<clipPath id="clip0_2529_177">
<rect width="24" height="24" fill="white"/>
</clipPath>
</defs>
</svg>
