<svg width="36" height="36" viewBox="0 0 36 36" fill="none" xmlns="http://www.w3.org/2000/svg">
<path fill-rule="evenodd" clip-rule="evenodd" d="M19.5 4.49994V32.2499H35.25C35.6662 32.2499 36 31.9143 36 31.4999V9.37494C36 9.05019 35.79 8.76219 35.4825 8.66169L20.4825 3.78669C20.3695 3.75013 20.2495 3.74072 20.1323 3.75923C20.015 3.77773 19.9037 3.82363 19.8075 3.89319C19.6162 4.03419 19.5 4.25994 19.5 4.49994ZM10.5 12.9007C13.17 14.2676 15 17.0467 15 20.2499C15 22.6623 13.9312 25.2997 12.5662 27.5688C11.895 28.6856 11.1637 29.7104 10.5 30.5651V31.4999C10.5 31.9143 10.8337 32.2499 11.25 32.2499H18V8.78919L11.0662 10.5224C10.9042 10.5631 10.7604 10.6568 10.6578 10.7886C10.5551 10.9205 10.4996 11.0829 10.5 11.2499V12.9007ZM6.21375 32.0234C6.3525 32.1682 6.5475 32.2499 6.75 32.2499C6.9525 32.2499 7.1475 32.1682 7.28625 32.0234C7.28625 32.0234 9.50625 29.7468 11.28 26.7959C12.5025 24.7623 13.5 22.4118 13.5 20.2499C13.5 16.5247 10.4738 13.4999 6.75 13.4999C3.02625 13.4999 0 16.5247 0 20.2499C0 22.4118 0.9975 24.7623 2.22 26.7959C3.99375 29.7468 6.21375 32.0234 6.21375 32.0234ZM24 27.3749H26.25C26.6625 27.3749 27 27.0389 27 26.6249C27 26.2109 26.6625 25.8749 26.25 25.8749H24C23.5875 25.8749 23.25 26.2109 23.25 26.6249C23.25 27.0389 23.5875 27.3749 24 27.3749ZM29.25 27.3749H31.5C31.9125 27.3749 32.25 27.0389 32.25 26.6249C32.25 26.2109 31.9125 25.8749 31.5 25.8749H29.25C28.8375 25.8749 28.5 26.2109 28.5 26.6249C28.5 27.0389 28.8375 27.3749 29.25 27.3749ZM24 23.2499H26.25C26.6625 23.2499 27 22.9139 27 22.4999C27 22.0859 26.6625 21.7499 26.25 21.7499H24C23.5875 21.7499 23.25 22.0859 23.25 22.4999C23.25 22.9139 23.5875 23.2499 24 23.2499ZM29.25 23.2499H31.5C31.9125 23.2499 32.25 22.9139 32.25 22.4999C32.25 22.0859 31.9125 21.7499 31.5 21.7499H29.25C28.8375 21.7499 28.5 22.0859 28.5 22.4999C28.5 22.9139 28.8375 23.2499 29.25 23.2499ZM6.75 17.6249C8.1975 17.6249 9.375 18.8013 9.375 20.2499C9.375 21.6986 8.1975 22.8749 6.75 22.8749C5.3025 22.8749 4.125 21.6986 4.125 20.2499C4.125 18.8013 5.3025 17.6249 6.75 17.6249ZM24 19.1249H26.25C26.6625 19.1249 27 18.7889 27 18.3749C27 17.9609 26.6625 17.6249 26.25 17.6249H24C23.5875 17.6249 23.25 17.9609 23.25 18.3749C23.25 18.7889 23.5875 19.1249 24 19.1249ZM29.25 19.1249H31.5C31.9125 19.1249 32.25 18.7889 32.25 18.3749C32.25 17.9609 31.9125 17.6249 31.5 17.6249H29.25C28.8375 17.6249 28.5 17.9609 28.5 18.3749C28.5 18.7889 28.8375 19.1249 29.25 19.1249ZM24 14.9999H26.25C26.6625 14.9999 27 14.6639 27 14.2499C27 13.8359 26.6625 13.4999 26.25 13.4999H24C23.5875 13.4999 23.25 13.8359 23.25 14.2499C23.25 14.6639 23.5875 14.9999 24 14.9999ZM29.25 14.9999H31.5C31.9125 14.9999 32.25 14.6639 32.25 14.2499C32.25 13.8359 31.9125 13.4999 31.5 13.4999H29.25C28.8375 13.4999 28.5 13.8359 28.5 14.2499C28.5 14.6639 28.8375 14.9999 29.25 14.9999Z" fill="white"/>
</svg>
