<svg width="24" height="24" viewBox="0 0 24 24" fill="none" xmlns="http://www.w3.org/2000/svg">
<g clip-path="url(#clip0_2529_187)">
<path d="M12 24C18.6274 24 24 18.6274 24 12C24 5.37258 18.6274 0 12 0C5.37258 0 0 5.37258 0 12C0 18.6274 5.37258 24 12 24Z" fill="#B99F9F"/>
<path d="M15 6H9C7.344 6 6 7.344 6 9V15C6 16.656 7.344 18 9 18H15C16.656 18 18 16.656 18 15V9C18 7.344 16.656 6 15 6ZM12 15C10.344 15 9 13.656 9 12C9 10.344 10.344 9 12 9C13.656 9 15 10.344 15 12C15 13.656 13.656 15 12 15ZM15.21 9.372C14.88 9.372 14.61 9.102 14.61 8.772C14.61 8.442 14.88 8.172 15.21 8.172C15.54 8.172 15.81 8.442 15.81 8.772C15.81 9.102 15.54 9.372 15.21 9.372Z" fill="white"/>
<path d="M11.9992 13.7997C12.9933 13.7997 13.7992 12.9938 13.7992 11.9997C13.7992 11.0056 12.9933 10.1997 11.9992 10.1997C11.0051 10.1997 10.1992 11.0056 10.1992 11.9997C10.1992 12.9938 11.0051 13.7997 11.9992 13.7997Z" fill="white"/>
</g>
<defs>
<clipPath id="clip0_2529_187">
<rect width="24" height="24" fill="white"/>
</clipPath>
</defs>
</svg>
