<svg width="36" height="36" viewBox="0 0 36 36" fill="none" xmlns="http://www.w3.org/2000/svg">
<g clip-path="url(#clip0_2529_292)">
<path d="M26.9454 27.4909V30C26.9454 30.2728 26.7272 30.5455 26.4 30.5455H21.8727C21.7636 29.7819 22.2545 27.4364 20.8909 24.7637H23.2363L23.8363 26.9455H26.4545C26.7272 26.9455 26.9454 27.1637 26.9454 27.4909ZM33.7091 0.763672H6.98178C5.99996 0.763672 5.23633 1.58185 5.23633 2.50913V3.92731C5.5636 3.65458 5.94542 3.4364 6.32724 3.21822V2.50913C6.32724 2.12731 6.65451 1.85458 6.98178 1.85458H33.7091C34.0909 1.85458 34.3636 2.12731 34.3636 2.50913V17.8364H17.3454C16.4727 18.0546 15.6 18.2182 14.7818 18.2182L14.5091 18.4909C14.0181 19.0364 13.4727 19.4728 12.9272 19.8C15.9272 19.8546 18.6 21.3273 20.2363 23.6728H33.7091C34.6909 23.6728 35.4545 22.8546 35.4545 21.9273V2.50913C35.4545 1.52731 34.6363 0.763672 33.7091 0.763672ZM20.3454 21.7637C19.8 21.7637 19.3636 21.3273 19.3636 20.7819C19.3636 20.2364 19.8 19.8 20.3454 19.8C20.8909 19.8 21.3272 20.2364 21.3272 20.7819C21.3272 21.3273 20.8909 21.7637 20.3454 21.7637Z" fill="white"/>
<path d="M15.2722 15.3273C15.3267 15.1636 15.3813 15.0545 15.4358 14.8909C16.9086 14.6727 17.1813 11.5091 15.9267 10.6363C15.4358 7.74544 13.1995 5.61816 10.6358 5.61816C8.01765 5.61816 5.83583 7.74544 5.34492 10.6363C4.09038 11.5091 4.3631 14.6182 5.83583 14.8909C6.70856 17.1818 8.50856 19.4182 10.6358 19.4182C11.8358 19.4182 12.8176 18.7636 13.6904 17.8363C12.8722 17.7273 12.1086 17.5091 11.5086 17.1273C11.2358 17.2363 10.9631 17.2909 10.6904 17.2909C9.43583 17.2909 8.34492 16.2545 8.34492 14.9454C8.34492 13.6363 9.38129 12.6 10.6904 12.6C11.9995 12.6 13.0358 13.6363 13.0358 14.9454V15.1091C13.6904 15.3818 14.5631 15.4363 15.2722 15.3273ZM12.8176 20.8909H8.5631C4.14492 20.8909 0.544922 24.4909 0.544922 28.9091V32.7273C0.544922 32.9454 0.708558 33.1636 0.872195 33.2182C7.14492 35.8363 13.7449 36.0545 20.454 33.2182C20.6722 33.1091 20.7813 32.9454 20.7813 32.7273V28.9091C20.7813 24.4909 17.2358 20.8909 12.8176 20.8909Z" fill="white"/>
<path d="M2.67166 16.2004H2.72621C3.59893 16.2004 4.30803 15.4913 4.30803 14.6186V12.9277C4.30803 12.2186 3.87166 11.6732 3.27166 11.455C3.70803 7.41861 6.81712 4.30952 10.6353 4.30952C14.4535 4.30952 17.6171 7.36406 17.9989 11.4004C17.3989 11.6186 16.9626 12.2186 16.9626 12.8732V14.5641C16.9626 14.7277 16.9626 14.8368 17.0171 14.9459C17.0717 15.1641 17.1808 15.3822 17.2898 15.5459C15.9808 15.9822 13.7989 16.4732 12.2171 15.4368C12.2717 15.2732 12.3262 15.1095 12.3262 14.9459C12.3262 14.0732 11.6171 13.3095 10.6898 13.3095C9.81712 13.3095 9.05348 14.0732 9.05348 14.9459C9.05348 15.8732 9.81712 16.5822 10.6898 16.5822C11.0171 16.5822 11.2898 16.4732 11.5626 16.3095C13.5262 17.6732 16.5808 17.1822 18.708 16.1459C19.5808 16.0913 20.2353 15.4368 20.2353 14.5641V12.8732C20.2353 12.1641 19.7444 11.5641 19.0898 11.3459C18.6535 6.70952 14.9989 3.16406 10.6353 3.16406C6.27166 3.16406 2.61712 6.70952 2.18075 11.3459C1.58075 11.5641 1.08984 12.1641 1.08984 12.9277V14.6186C1.08984 15.4913 1.79893 16.2004 2.67166 16.2004ZM31.7444 13.6913C31.7444 13.9641 31.5262 14.2368 31.1989 14.2368H25.308C25.0353 14.2368 24.7626 13.9641 24.7626 13.6913C24.7626 13.4186 25.0353 13.1459 25.308 13.1459H31.1989C31.5262 13.1459 31.7444 13.3641 31.7444 13.6913ZM31.1989 6.3277H22.4171C22.0898 6.3277 21.8717 6.10952 21.8717 5.78224C21.8717 5.45497 22.0898 5.23679 22.4171 5.23679H31.2535C31.5808 5.23679 31.7989 5.45497 31.7989 5.78224C31.7444 6.05497 31.5262 6.3277 31.1989 6.3277ZM31.7444 9.70952C31.7444 10.0368 31.5262 10.255 31.1989 10.255H24.3808C24.0535 10.255 23.8353 10.0368 23.8353 9.70952C23.8353 9.38224 24.0535 9.16406 24.3808 9.16406H31.1989C31.5262 9.16406 31.7444 9.43679 31.7444 9.70952Z" fill="white"/>
</g>
<defs>
<clipPath id="clip0_2529_292">
<rect width="36" height="36" fill="white"/>
</clipPath>
</defs>
</svg>
